<svg xmlns="http://www.w3.org/2000/svg" xmlns:xlink="http://www.w3.org/1999/xlink" width="260" zoomAndPan="magnify" viewBox="0 0 194.87999 30.000001" height="40" preserveAspectRatio="xMidYMid meet" version="1.0"><defs><g/><clipPath id="acfb2d44f8"><path d="M 3.085938 0 L 32.117188 0 L 32.117188 29.03125 L 3.085938 29.03125 Z M 3.085938 0 " clip-rule="nonzero"/></clipPath><clipPath id="7415516b89"><path d="M 10 25 L 25 25 L 25 29.03125 L 10 29.03125 Z M 10 25 " clip-rule="nonzero"/></clipPath></defs><g clip-path="url(#acfb2d44f8)"><path fill="#179deb" d="M 32.117188 14.515625 C 32.117188 22.53125 25.617188 29.027344 17.601562 29.027344 C 9.585938 29.027344 3.089844 22.53125 3.089844 14.515625 C 3.089844 6.5 9.585938 0 17.601562 0 C 25.617188 0 32.117188 6.5 32.117188 14.515625 " fill-opacity="1" fill-rule="nonzero"/></g><path fill="#ffffff" d="M 13.867188 9.746094 L 12.664062 9.746094 L 12.664062 4.285156 L 13.867188 4.285156 L 13.867188 9.746094 " fill-opacity="1" fill-rule="nonzero"/><path fill="#ebf0f2" d="M 12.664062 4.539062 L 12.664062 5.871094 C 12.847656 5.960938 13.050781 6.015625 13.265625 6.015625 C 13.480469 6.015625 13.6875 5.960938 13.867188 5.871094 L 13.867188 4.539062 L 12.664062 4.539062 " fill-opacity="1" fill-rule="nonzero"/><path fill="#ebf0f2" d="M 14.742188 4.285156 C 14.742188 5.097656 14.082031 5.757812 13.265625 5.757812 C 12.453125 5.757812 11.792969 5.097656 11.792969 4.285156 C 11.792969 3.46875 12.453125 2.808594 13.265625 2.808594 C 14.082031 2.808594 14.742188 3.46875 14.742188 4.285156 " fill-opacity="1" fill-rule="nonzero"/><path fill="#ffffff" d="M 14.605469 4.421875 C 14.605469 5.160156 14.003906 5.757812 13.265625 5.757812 C 12.527344 5.757812 11.929688 5.160156 11.929688 4.421875 C 11.929688 3.679688 12.527344 3.082031 13.265625 3.082031 C 14.003906 3.082031 14.605469 3.679688 14.605469 4.421875 " fill-opacity="1" fill-rule="nonzero"/><path fill="#179deb" d="M 13.703125 4.285156 C 13.703125 4.523438 13.507812 4.71875 13.265625 4.71875 C 13.023438 4.71875 12.828125 4.523438 12.828125 4.285156 C 12.828125 4.042969 13.023438 3.847656 13.265625 3.847656 C 13.507812 3.847656 13.703125 4.042969 13.703125 4.285156 " fill-opacity="1" fill-rule="nonzero"/><path fill="#ffffff" d="M 22.582031 9.746094 L 21.378906 9.746094 L 21.378906 4.285156 L 22.582031 4.285156 L 22.582031 9.746094 " fill-opacity="1" fill-rule="nonzero"/><path fill="#ebf0f2" d="M 21.378906 4.539062 L 21.378906 5.871094 C 21.558594 5.960938 21.765625 6.015625 21.980469 6.015625 C 22.195312 6.015625 22.398438 5.960938 22.582031 5.871094 L 22.582031 4.539062 L 21.378906 4.539062 " fill-opacity="1" fill-rule="nonzero"/><path fill="#ebf0f2" d="M 23.457031 4.285156 C 23.457031 5.097656 22.796875 5.757812 21.980469 5.757812 C 21.164062 5.757812 20.503906 5.097656 20.503906 4.285156 C 20.503906 3.46875 21.164062 2.808594 21.980469 2.808594 C 22.796875 2.808594 23.457031 3.46875 23.457031 4.285156 " fill-opacity="1" fill-rule="nonzero"/><path fill="#ffffff" d="M 23.320312 4.421875 C 23.320312 5.160156 22.71875 5.757812 21.980469 5.757812 C 21.242188 5.757812 20.640625 5.160156 20.640625 4.421875 C 20.640625 3.679688 21.242188 3.082031 21.980469 3.082031 C 22.71875 3.082031 23.320312 3.679688 23.320312 4.421875 " fill-opacity="1" fill-rule="nonzero"/><path fill="#179deb" d="M 22.417969 4.285156 C 22.417969 4.523438 22.222656 4.71875 21.980469 4.71875 C 21.738281 4.71875 21.542969 4.523438 21.542969 4.285156 C 21.542969 4.042969 21.738281 3.847656 21.980469 3.847656 C 22.222656 3.847656 22.417969 4.042969 22.417969 4.285156 " fill-opacity="1" fill-rule="nonzero"/><path fill="#ffffff" d="M 7.613281 16.027344 C 7.613281 13.570312 9.816406 11.578125 12.535156 11.578125 L 13.003906 11.578125 L 13.003906 20.480469 L 12.535156 20.480469 C 9.816406 20.480469 7.613281 18.488281 7.613281 16.027344 " fill-opacity="1" fill-rule="nonzero"/><path fill="#ffffff" d="M 27.59375 16.027344 C 27.59375 18.488281 25.390625 20.480469 22.671875 20.480469 L 22.203125 20.480469 L 22.203125 11.578125 L 22.671875 11.578125 C 25.390625 11.578125 27.59375 13.570312 27.59375 16.027344 " fill-opacity="1" fill-rule="nonzero"/><path fill="#ffffff" d="M 18.785156 27.957031 L 16.488281 27.957031 L 16.488281 23.222656 L 18.785156 23.222656 L 18.785156 27.957031 " fill-opacity="1" fill-rule="nonzero"/><path fill="#ebf0f2" d="M 20.480469 27.578125 L 14.792969 27.578125 C 14.367188 27.578125 14.019531 27.230469 14.019531 26.804688 L 14.019531 25.742188 C 14.019531 25.316406 14.367188 24.96875 14.792969 24.96875 L 20.480469 24.96875 C 20.90625 24.96875 21.253906 25.316406 21.253906 25.742188 L 21.253906 26.804688 C 21.253906 27.230469 20.90625 27.578125 20.480469 27.578125 " fill-opacity="1" fill-rule="nonzero"/><path fill="#ebf0f2" d="M 18.785156 23.882812 L 16.492188 23.863281 L 16.492188 24.296875 C 16.582031 24.316406 17.597656 24.503906 18.785156 24.296875 L 18.785156 23.882812 " fill-opacity="1" fill-rule="nonzero"/><path fill="#e4f1f9" d="M 25.941406 15.71875 C 25.941406 20.304688 22.222656 24.023438 17.636719 24.023438 C 13.050781 24.023438 9.332031 20.304688 9.332031 15.71875 C 9.332031 11.132812 13.050781 7.414062 17.636719 7.414062 C 22.222656 7.414062 25.941406 11.132812 25.941406 15.71875 " fill-opacity="1" fill-rule="nonzero"/><path fill="#ffffff" d="M 25.699219 15.957031 C 25.699219 20.410156 22.089844 24.023438 17.636719 24.023438 C 13.183594 24.023438 9.574219 20.410156 9.574219 15.957031 C 9.574219 11.503906 13.183594 7.894531 17.636719 7.894531 C 22.089844 7.894531 25.699219 11.503906 25.699219 15.957031 " fill-opacity="1" fill-rule="nonzero"/><path fill="#ebf7ff" d="M 24.253906 16.027344 C 24.253906 19.582031 21.292969 22.46875 17.636719 22.46875 C 13.980469 22.46875 11.019531 19.582031 11.019531 16.027344 C 11.019531 12.46875 13.980469 9.585938 17.636719 9.585938 C 21.292969 9.585938 24.253906 12.46875 24.253906 16.027344 " fill-opacity="1" fill-rule="nonzero"/><path fill="#179deb" d="M 23.875 16.394531 C 23.875 19.75 21.082031 22.46875 17.636719 22.46875 C 14.191406 22.46875 11.398438 19.75 11.398438 16.394531 C 11.398438 13.042969 14.191406 10.324219 17.636719 10.324219 C 21.082031 10.324219 23.875 13.042969 23.875 16.394531 " fill-opacity="1" fill-rule="nonzero"/><path fill="#ebf0f2" d="M 15.015625 18.097656 C 14.796875 18.097656 14.675781 18.347656 14.8125 18.519531 C 15.46875 19.355469 16.488281 19.894531 17.636719 19.894531 C 18.785156 19.894531 19.804688 19.355469 20.460938 18.519531 C 20.597656 18.347656 20.476562 18.097656 20.257812 18.097656 L 15.015625 18.097656 " fill-opacity="1" fill-rule="nonzero"/><path fill="#ffffff" d="M 14.933594 18.667969 C 15.59375 19.421875 16.558594 19.894531 17.636719 19.894531 C 18.714844 19.894531 19.679688 19.421875 20.339844 18.667969 L 14.933594 18.667969 " fill-opacity="1" fill-rule="nonzero"/><path fill="#ffffff" d="M 15.355469 14.367188 C 15.355469 14.789062 15.015625 15.128906 14.59375 15.128906 C 14.175781 15.128906 13.835938 14.789062 13.835938 14.367188 C 13.835938 13.949219 14.175781 13.605469 14.59375 13.605469 C 15.015625 13.605469 15.355469 13.949219 15.355469 14.367188 " fill-opacity="1" fill-rule="nonzero"/><path fill="#ffffff" d="M 21.4375 14.367188 C 21.4375 14.789062 21.097656 15.128906 20.675781 15.128906 C 20.257812 15.128906 19.917969 14.789062 19.917969 14.367188 C 19.917969 13.949219 20.257812 13.605469 20.675781 13.605469 C 21.097656 13.605469 21.4375 13.949219 21.4375 14.367188 " fill-opacity="1" fill-rule="nonzero"/><path fill="#ffffff" d="M 20.757812 27.410156 L 14.515625 27.410156 C 14.234375 27.410156 14.007812 27.183594 14.007812 26.902344 L 14.007812 25.257812 C 14.007812 24.976562 14.234375 24.75 14.515625 24.75 L 20.757812 24.75 C 21.039062 24.75 21.265625 24.976562 21.265625 25.257812 L 21.265625 26.902344 C 21.265625 27.183594 21.039062 27.410156 20.757812 27.410156 " fill-opacity="1" fill-rule="nonzero"/><g clip-path="url(#7415516b89)"><path fill="#ffffff" d="M 23.125 25.644531 L 12.148438 25.644531 C 11.269531 25.644531 10.535156 26.269531 10.363281 27.101562 C 12.496094 28.328125 14.96875 29.03125 17.601562 29.03125 C 20.261719 29.03125 22.757812 28.316406 24.898438 27.066406 C 24.71875 26.253906 23.992188 25.644531 23.125 25.644531 " fill-opacity="1" fill-rule="nonzero"/></g><g fill="#022179" fill-opacity="1"><g transform="translate(33.726135, 19.233873)"><g><path d="M 6.921875 -1.984375 L 2.84375 -1.984375 L 2.140625 0 L 0.46875 0 L 3.96875 -9.75 L 5.8125 -9.75 L 9.3125 0 L 7.625 0 Z M 6.46875 -3.296875 L 4.890625 -7.828125 L 3.296875 -3.296875 Z M 6.46875 -3.296875 "/></g></g></g><g fill="#022179" fill-opacity="1"><g transform="translate(44.006541, 19.233873)"><g><path d="M 2.65625 -9.734375 L 2.65625 0 L 1.046875 0 L 1.046875 -9.734375 Z M 2.65625 -9.734375 "/></g></g></g><g fill="#022179" fill-opacity="1"><g transform="translate(48.222426, 19.233873)"><g/></g></g><g fill="#022179" fill-opacity="1"><g transform="translate(52.382295, 19.233873)"><g><path d="M 7.859375 -6.84375 C 7.859375 -6.34375 7.738281 -5.875 7.5 -5.4375 C 7.269531 -5 6.898438 -4.640625 6.390625 -4.359375 C 5.878906 -4.085938 5.222656 -3.953125 4.421875 -3.953125 L 2.65625 -3.953125 L 2.65625 0 L 1.046875 0 L 1.046875 -9.734375 L 4.421875 -9.734375 C 5.160156 -9.734375 5.789062 -9.601562 6.3125 -9.34375 C 6.832031 -9.09375 7.21875 -8.75 7.46875 -8.3125 C 7.726562 -7.875 7.859375 -7.382812 7.859375 -6.84375 Z M 4.421875 -5.25 C 5.023438 -5.25 5.472656 -5.382812 5.765625 -5.65625 C 6.066406 -5.9375 6.21875 -6.332031 6.21875 -6.84375 C 6.21875 -7.90625 5.617188 -8.4375 4.421875 -8.4375 L 2.65625 -8.4375 L 2.65625 -5.25 Z M 4.421875 -5.25 "/></g></g></g><g fill="#022179" fill-opacity="1"><g transform="translate(61.234101, 19.233873)"><g><path d="M 5.5 0.09375 C 4.59375 0.09375 3.753906 -0.113281 2.984375 -0.53125 C 2.222656 -0.957031 1.617188 -1.550781 1.171875 -2.3125 C 0.734375 -3.082031 0.515625 -3.941406 0.515625 -4.890625 C 0.515625 -5.847656 0.734375 -6.703125 1.171875 -7.453125 C 1.617188 -8.210938 2.222656 -8.800781 2.984375 -9.21875 C 3.753906 -9.644531 4.59375 -9.859375 5.5 -9.859375 C 6.414062 -9.859375 7.253906 -9.644531 8.015625 -9.21875 C 8.773438 -8.800781 9.375 -8.210938 9.8125 -7.453125 C 10.25 -6.703125 10.46875 -5.847656 10.46875 -4.890625 C 10.46875 -3.941406 10.25 -3.082031 9.8125 -2.3125 C 9.375 -1.550781 8.773438 -0.957031 8.015625 -0.53125 C 7.253906 -0.113281 6.414062 0.09375 5.5 0.09375 Z M 5.5 -1.296875 C 6.144531 -1.296875 6.71875 -1.441406 7.21875 -1.734375 C 7.71875 -2.023438 8.109375 -2.441406 8.390625 -2.984375 C 8.679688 -3.535156 8.828125 -4.171875 8.828125 -4.890625 C 8.828125 -5.609375 8.679688 -6.238281 8.390625 -6.78125 C 8.109375 -7.320312 7.71875 -7.738281 7.21875 -8.03125 C 6.71875 -8.320312 6.144531 -8.46875 5.5 -8.46875 C 4.851562 -8.46875 4.273438 -8.320312 3.765625 -8.03125 C 3.265625 -7.738281 2.867188 -7.320312 2.578125 -6.78125 C 2.296875 -6.238281 2.15625 -5.609375 2.15625 -4.890625 C 2.15625 -4.171875 2.296875 -3.535156 2.578125 -2.984375 C 2.867188 -2.441406 3.265625 -2.023438 3.765625 -1.734375 C 4.273438 -1.441406 4.851562 -1.296875 5.5 -1.296875 Z M 5.5 -1.296875 "/></g></g></g><g fill="#022179" fill-opacity="1"><g transform="translate(72.733005, 19.233873)"><g><path d="M 4.265625 0.09375 C 3.609375 0.09375 3.015625 -0.0195312 2.484375 -0.25 C 1.960938 -0.476562 1.550781 -0.800781 1.25 -1.21875 C 0.957031 -1.632812 0.8125 -2.125 0.8125 -2.6875 L 2.515625 -2.6875 C 2.554688 -2.269531 2.722656 -1.925781 3.015625 -1.65625 C 3.316406 -1.382812 3.734375 -1.25 4.265625 -1.25 C 4.816406 -1.25 5.242188 -1.378906 5.546875 -1.640625 C 5.859375 -1.910156 6.015625 -2.253906 6.015625 -2.671875 C 6.015625 -3.003906 5.914062 -3.269531 5.71875 -3.46875 C 5.53125 -3.675781 5.289062 -3.835938 5 -3.953125 C 4.71875 -4.066406 4.328125 -4.1875 3.828125 -4.3125 C 3.191406 -4.476562 2.675781 -4.648438 2.28125 -4.828125 C 1.882812 -5.003906 1.546875 -5.273438 1.265625 -5.640625 C 0.984375 -6.003906 0.84375 -6.488281 0.84375 -7.09375 C 0.84375 -7.65625 0.984375 -8.144531 1.265625 -8.5625 C 1.546875 -8.976562 1.9375 -9.296875 2.4375 -9.515625 C 2.945312 -9.742188 3.53125 -9.859375 4.1875 -9.859375 C 5.132812 -9.859375 5.910156 -9.625 6.515625 -9.15625 C 7.117188 -8.6875 7.453125 -8.039062 7.515625 -7.21875 L 5.75 -7.21875 C 5.71875 -7.570312 5.546875 -7.875 5.234375 -8.125 C 4.929688 -8.375 4.523438 -8.5 4.015625 -8.5 C 3.554688 -8.5 3.179688 -8.382812 2.890625 -8.15625 C 2.609375 -7.925781 2.46875 -7.585938 2.46875 -7.140625 C 2.46875 -6.847656 2.554688 -6.601562 2.734375 -6.40625 C 2.921875 -6.21875 3.15625 -6.066406 3.4375 -5.953125 C 3.71875 -5.835938 4.097656 -5.71875 4.578125 -5.59375 C 5.222656 -5.414062 5.75 -5.238281 6.15625 -5.0625 C 6.5625 -4.882812 6.90625 -4.609375 7.1875 -4.234375 C 7.476562 -3.867188 7.625 -3.378906 7.625 -2.765625 C 7.625 -2.265625 7.488281 -1.796875 7.21875 -1.359375 C 6.957031 -0.921875 6.570312 -0.566406 6.0625 -0.296875 C 5.550781 -0.0351562 4.953125 0.09375 4.265625 0.09375 Z M 4.265625 0.09375 "/></g></g></g><g fill="#022179" fill-opacity="1"><g transform="translate(81.710867, 19.233873)"><g><path d="M 7.34375 -9.734375 L 7.34375 -8.4375 L 4.75 -8.4375 L 4.75 0 L 3.15625 0 L 3.15625 -8.4375 L 0.546875 -8.4375 L 0.546875 -9.734375 Z M 7.34375 -9.734375 "/></g></g></g><g fill="#022179" fill-opacity="1"><g transform="translate(90.128493, 19.233873)"><g/></g></g><g fill="#022179" fill-opacity="1"><g transform="translate(94.288363, 19.233873)"><g><path d="M 8.828125 -9.734375 L 8.828125 0 L 7.234375 0 L 7.234375 -4.265625 L 2.65625 -4.265625 L 2.65625 0 L 1.046875 0 L 1.046875 -9.734375 L 2.65625 -9.734375 L 2.65625 -5.5625 L 7.234375 -5.5625 L 7.234375 -9.734375 Z M 8.828125 -9.734375 "/></g></g></g><g fill="#022179" fill-opacity="1"><g transform="translate(104.680815, 19.233873)"><g><path d="M 2.65625 -8.453125 L 2.65625 -5.59375 L 6.015625 -5.59375 L 6.015625 -4.28125 L 2.65625 -4.28125 L 2.65625 -1.296875 L 6.4375 -1.296875 L 6.4375 0 L 1.046875 0 L 1.046875 -9.75 L 6.4375 -9.75 L 6.4375 -8.453125 Z M 2.65625 -8.453125 "/></g></g></g><g fill="#022179" fill-opacity="1"><g transform="translate(112.538215, 19.233873)"><g><path d="M 2.65625 -1.296875 L 5.9375 -1.296875 L 5.9375 0 L 1.046875 0 L 1.046875 -9.734375 L 2.65625 -9.734375 Z M 2.65625 -1.296875 "/></g></g></g><g fill="#022179" fill-opacity="1"><g transform="translate(119.275144, 19.233873)"><g><path d="M 7.859375 -6.84375 C 7.859375 -6.34375 7.738281 -5.875 7.5 -5.4375 C 7.269531 -5 6.898438 -4.640625 6.390625 -4.359375 C 5.878906 -4.085938 5.222656 -3.953125 4.421875 -3.953125 L 2.65625 -3.953125 L 2.65625 0 L 1.046875 0 L 1.046875 -9.734375 L 4.421875 -9.734375 C 5.160156 -9.734375 5.789062 -9.601562 6.3125 -9.34375 C 6.832031 -9.09375 7.21875 -8.75 7.46875 -8.3125 C 7.726562 -7.875 7.859375 -7.382812 7.859375 -6.84375 Z M 4.421875 -5.25 C 5.023438 -5.25 5.472656 -5.382812 5.765625 -5.65625 C 6.066406 -5.9375 6.21875 -6.332031 6.21875 -6.84375 C 6.21875 -7.90625 5.617188 -8.4375 4.421875 -8.4375 L 2.65625 -8.4375 L 2.65625 -5.25 Z M 4.421875 -5.25 "/></g></g></g><g fill="#022179" fill-opacity="1"><g transform="translate(128.126945, 19.233873)"><g><path d="M 2.65625 -8.453125 L 2.65625 -5.59375 L 6.015625 -5.59375 L 6.015625 -4.28125 L 2.65625 -4.28125 L 2.65625 -1.296875 L 6.4375 -1.296875 L 6.4375 0 L 1.046875 0 L 1.046875 -9.75 L 6.4375 -9.75 L 6.4375 -8.453125 Z M 2.65625 -8.453125 "/></g></g></g><g fill="#022179" fill-opacity="1"><g transform="translate(135.984341, 19.233873)"><g><path d="M 6.109375 0 L 3.875 -3.890625 L 2.65625 -3.890625 L 2.65625 0 L 1.046875 0 L 1.046875 -9.734375 L 4.421875 -9.734375 C 5.160156 -9.734375 5.789062 -9.601562 6.3125 -9.34375 C 6.832031 -9.082031 7.21875 -8.734375 7.46875 -8.296875 C 7.726562 -7.859375 7.859375 -7.367188 7.859375 -6.828125 C 7.859375 -6.191406 7.671875 -5.613281 7.296875 -5.09375 C 6.929688 -4.570312 6.367188 -4.21875 5.609375 -4.03125 L 8.015625 0 Z M 2.65625 -5.171875 L 4.421875 -5.171875 C 5.015625 -5.171875 5.460938 -5.316406 5.765625 -5.609375 C 6.066406 -5.910156 6.21875 -6.316406 6.21875 -6.828125 C 6.21875 -7.328125 6.066406 -7.71875 5.765625 -8 C 5.472656 -8.289062 5.023438 -8.4375 4.421875 -8.4375 L 2.65625 -8.4375 Z M 2.65625 -5.171875 "/></g></g></g></svg>