<svg xmlns="http://www.w3.org/2000/svg" xmlns:xlink="http://www.w3.org/1999/xlink" width="500" zoomAndPan="magnify" viewBox="0 0 375 374.999991" height="500" preserveAspectRatio="xMidYMid meet" version="1.0"><defs><clipPath id="65ed726f04"><path d="M 167.992188 168.625 L 206.992188 168.625 L 206.992188 206.125 L 167.992188 206.125 Z M 167.992188 168.625 " clip-rule="nonzero"/></clipPath></defs><g clip-path="url(#65ed726f04)"><path fill="#22d9ee" d="M 196.441406 189.75 C 199.777344 189.75 202.5 192.476562 202.5 195.808594 C 202.5 199.136719 199.777344 201.859375 196.441406 201.859375 L 181.011719 201.859375 C 179.769531 201.859375 178.757812 202.875 178.757812 204.113281 C 178.757812 205.355469 179.769531 206.367188 181.011719 206.367188 L 196.441406 206.367188 C 202.25 206.367188 207.003906 201.613281 207.003906 195.808594 C 207.003906 192.441406 205.410156 189.433594 202.945312 187.496094 C 205.410156 185.558594 207.003906 182.550781 207.003906 179.1875 C 207.003906 173.378906 202.25 168.628906 196.441406 168.628906 L 181.011719 168.628906 C 179.769531 168.628906 178.757812 169.640625 178.757812 170.882812 C 178.757812 172.121094 179.769531 173.128906 181.011719 173.128906 L 196.441406 173.128906 C 199.777344 173.128906 202.5 175.859375 202.5 179.1875 C 202.5 182.519531 199.777344 185.246094 196.441406 185.246094 L 185.15625 185.246094 C 183.914062 185.246094 182.902344 186.261719 182.902344 187.496094 C 182.902344 188.734375 183.914062 189.75 185.15625 189.75 Z M 177.328125 198.054688 L 196.054688 198.054688 C 197.296875 198.054688 198.308594 197.042969 198.308594 195.808594 C 198.308594 194.566406 197.296875 193.550781 196.054688 193.550781 L 175.875 193.550781 C 174.636719 193.550781 173.621094 194.566406 173.621094 195.808594 C 173.621094 197.042969 174.636719 198.054688 175.875 198.054688 Z M 177.328125 181.441406 L 196.054688 181.441406 C 197.296875 181.441406 198.308594 180.429688 198.308594 179.1875 C 198.308594 177.949219 197.296875 176.933594 196.054688 176.933594 L 175.875 176.933594 C 174.636719 176.933594 173.621094 177.949219 173.621094 179.1875 C 173.621094 180.429688 174.636719 181.441406 175.875 181.441406 Z M 179.605469 187.496094 C 179.605469 186.261719 178.59375 185.246094 177.351562 185.246094 L 170.246094 185.246094 C 169.003906 185.246094 167.992188 186.261719 167.992188 187.496094 C 167.992188 188.734375 169.003906 189.75 170.246094 189.75 L 177.351562 189.75 C 178.59375 189.75 179.605469 188.734375 179.605469 187.496094 Z M 179.605469 187.496094 " fill-opacity="1" fill-rule="evenodd"/></g></svg>